# xmcd
#
# Track frame offsets:
#  151
#  22928
#  49010
#  76943
#  109670
#  131697
#  158771
#  208022
#  231343
#  247109
#
# Disc length: 3568 seconds
#
# Revision: 0
# Processed by: cddbd v1.4b41PL3 Copyright (c) Steve Scherf et al.
# Submitted via: AlterCode WhopSee 2.3
#
DISCID=7d0dee0a
DTITLE=B.B. King - Why I Sing the Blues
DYEAR=1900
DGENRE=
TTITLE0=The Thrill Is Gone
TTITLE1=Guess Who
TTITLE2=Paying The Cost To Be The Boss
TTITLE3=All Over Again
TTITLE4=Every day I Have The Blues
TTITLE5=Sweet Little Angel
TTITLE6=B B's Theme
TTITLE7=Darling You Know I Love You
TTITLE8=Caldonia
TTITLE9=Why I Sing The Blues
EXTD=
EXTT0=
EXTT1=
EXTT2=
EXTT3=
EXTT4=
EXTT5=
EXTT6=
EXTT7=
EXTT8=
EXTT9=
PLAYORDER=
